HIERARCHY
ROOT hip
{
  OFFSET 0 90.174 2.4664
  CHANNELS 6 Xposition Yposition Zposition Zrotation Xrotation Yrotation
  JOINT abdomen
  {
    OFFSET 0 -1.186 -1.5018
    CHANNELS 6 Xposition Yposition Zposition Zrotation Xrotation Yrotation
    JOINT abdomen2
    {
      OFFSET 0 9.964 0.2134
      CHANNELS 6 Xposition Yposition Zposition Zrotation Xrotation Yrotation
      JOINT chest
      {
        OFFSET 0 13.134 -3.2573
        CHANNELS 6 Xposition Yposition Zposition Zrotation Xrotation Yrotation
        JOINT neck
        {
          OFFSET 0 20.686 -1.6905
          CHANNELS 6 Xposition Yposition Zposition Zrotation Xrotation Yrotation
          JOINT head
          {
            OFFSET 0 7.238 -0.1237
            CHANNELS 6 Xposition Yposition Zposition Zrotation Xrotation Yrotation
            End Site
            {
              OFFSET 0 0 0
            }
          }
        }
        JOINT lCollar
        {
          OFFSET 1.7069 20.075 5.0056
          CHANNELS 6 Xposition Yposition Zposition Zrotation Xrotation Yrotation
          JOINT lShldr
          {
            OFFSET 13.6458 -0.047 -4.849
            CHANNELS 6 Xposition Yposition Zposition Zrotation Xrotation Yrotation
            JOINT lForeArm
            {
              OFFSET 28.3255 -0.9759 2.2888
              CHANNELS 6 Xposition Yposition Zposition Zrotation Xrotation Yrotation
              JOINT lHand
              {
                OFFSET 22.1583 -0.53 10.8316
                CHANNELS 6 Xposition Yposition Zposition Zrotation Xrotation Yrotation
                JOINT lThumb1
                {
                  OFFSET 0.786 0.112 2.5817
                  CHANNELS 6 Xposition Yposition Zposition Zrotation Xrotation Yrotation
                  JOINT lThumb2
                  {
                    OFFSET 0.3601 -0.878 4.2331
                    CHANNELS 6 Xposition Yposition Zposition Zrotation Xrotation Yrotation
                    JOINT lThumb2_End
                    {
                      OFFSET 1.8127 -1.216 2.2227
                      CHANNELS 6 Xposition Yposition Zposition Zrotation Xrotation Yrotation
                      End Site
                      {
                        OFFSET 0.0181 -0.0122 0.0222
                      }
                    }
                  }
                }
                JOINT lCarpal1
                {
                  OFFSET 0.9571 1.114 1.7695
                  CHANNELS 6 Xposition Yposition Zposition Zrotation Xrotation Yrotation
                  JOINT lIndex1
                  {
                    OFFSET 4.1246 0.487 4.1451
                    CHANNELS 6 Xposition Yposition Zposition Zrotation Xrotation Yrotation
                    JOINT lIndex2
                    {
                      OFFSET 3.4052 -1.454 2.7682
                      CHANNELS 6 Xposition Yposition Zposition Zrotation Xrotation Yrotation
                      JOINT lIndex2_End
                      {
                        OFFSET 1.4531 -1.795 1.2713
                        CHANNELS 6 Xposition Yposition Zposition Zrotation Xrotation Yrotation
                        End Site
                        {
                          OFFSET 0.0145 -0.0179 0.0127
                        }
                      }
                    }
                  }
                  JOINT lMid1
                  {
                    OFFSET 5.6954 0.21 2.1184
                    CHANNELS 6 Xposition Yposition Zposition Zrotation Xrotation Yrotation
                    JOINT lMid2
                    {
                      OFFSET 3.9766 -1.54 2.3863
                      CHANNELS 6 Xposition Yposition Zposition Zrotation Xrotation Yrotation
                      JOINT lMid2_End
                      {
                        OFFSET 1.4042 -1.926 1.125
                        CHANNELS 6 Xposition Yposition Zposition Zrotation Xrotation Yrotation
                        End Site
                        {
                          OFFSET 0.014 -0.0193 0.0113
                        }
                      }
                    }
                  }
                }
                JOINT lCarpal2
                {
                  OFFSET 2.0956 0.66 -0.3894
                  CHANNELS 6 Xposition Yposition Zposition Zrotation Xrotation Yrotation
                  JOINT lRing1
                  {
                    OFFSET 5.0395 -0.09 2.4971
                    CHANNELS 6 Xposition Yposition Zposition Zrotation Xrotation Yrotation
                    JOINT lRing2
                    {
                      OFFSET 3.7921 -1.552 1.4806
                      CHANNELS 6 Xposition Yposition Zposition Zrotation Xrotation Yrotation
                      JOINT lRing2_End
                      {
                        OFFSET 1.4655 -1.808 0.9609
                        CHANNELS 6 Xposition Yposition Zposition Zrotation Xrotation Yrotation
                        End Site
                        {
                          OFFSET 0.0147 -0.0181 0.0096
                        }
                      }
                    }
                  }
                  JOINT lPinky1
                  {
                    OFFSET 4.9141 -1.269 0.3591
                    CHANNELS 6 Xposition Yposition Zposition Zrotation Xrotation Yrotation
                    JOINT lPinky2
                    {
                      OFFSET 3.1477 -1.685 0.8462
                      CHANNELS 6 Xposition Yposition Zposition Zrotation Xrotation Yrotation
                      JOINT lPinky2_End
                      {
                        OFFSET 0.8055 -1.585 0.7955
                        CHANNELS 6 Xposition Yposition Zposition Zrotation Xrotation Yrotation
                        End Site
                        {
                          OFFSET 0.0081 -0.0158 0.008
                        }
                      }
                    }
                  }
                }
              }
            }
          }
        }
        JOINT rCollar
        {
          OFFSET -1.7069 20.075 5.0056
          CHANNELS 6 Xposition Yposition Zposition Zrotation Xrotation Yrotation
          JOINT rShldr
          {
            OFFSET -13.6458 -0.047 -4.849
            CHANNELS 6 Xposition Yposition Zposition Zrotation Xrotation Yrotation
            JOINT rForeArm
            {
              OFFSET -28.3255 -0.9759 2.2888
              CHANNELS 6 Xposition Yposition Zposition Zrotation Xrotation Yrotation
              JOINT rHand
              {
                OFFSET -22.1583 -0.53 10.8316
                CHANNELS 6 Xposition Yposition Zposition Zrotation Xrotation Yrotation
                JOINT rThumb1
                {
                  OFFSET -0.786 0.112 2.5817
                  CHANNELS 6 Xposition Yposition Zposition Zrotation Xrotation Yrotation
                  JOINT rThumb2
                  {
                    OFFSET -0.3601 -0.878 4.2331
                    CHANNELS 6 Xposition Yposition Zposition Zrotation Xrotation Yrotation
                    JOINT rThumb2_End
                    {
                      OFFSET -1.8127 -1.216 2.2227
                      CHANNELS 6 Xposition Yposition Zposition Zrotation Xrotation Yrotation
                      End Site
                      {
                        OFFSET -0.0181 -0.0122 0.0222
                      }
                    }
                  }
                }
                JOINT rCarpal1
                {
                  OFFSET -0.9571 1.114 1.7695
                  CHANNELS 6 Xposition Yposition Zposition Zrotation Xrotation Yrotation
                  JOINT rIndex1
                  {
                    OFFSET -4.1246 0.487 4.1451
                    CHANNELS 6 Xposition Yposition Zposition Zrotation Xrotation Yrotation
                    JOINT rIndex2
                    {
                      OFFSET -3.4052 -1.454 2.7682
                      CHANNELS 6 Xposition Yposition Zposition Zrotation Xrotation Yrotation
                      JOINT rIndex2_End
                      {
                        OFFSET -1.4531 -1.795 1.2713
                        CHANNELS 6 Xposition Yposition Zposition Zrotation Xrotation Yrotation
                        End Site
                        {
                          OFFSET -0.0145 -0.018 0.0127
                        }
                      }
                    }
                  }
                  JOINT rMid1
                  {
                    OFFSET -5.6954 0.21 2.1184
                    CHANNELS 6 Xposition Yposition Zposition Zrotation Xrotation Yrotation
                    JOINT rMid2
                    {
                      OFFSET -3.9766 -1.54 2.3863
                      CHANNELS 6 Xposition Yposition Zposition Zrotation Xrotation Yrotation
                      JOINT rMid2_End
                      {
                        OFFSET -1.4042 -1.926 1.125
                        CHANNELS 6 Xposition Yposition Zposition Zrotation Xrotation Yrotation
                        End Site
                        {
                          OFFSET -0.014 -0.0193 0.0113
                        }
                      }
                    }
                  }
                }
                JOINT rCarpal2
                {
                  OFFSET -2.0956 0.66 -0.3894
                  CHANNELS 6 Xposition Yposition Zposition Zrotation Xrotation Yrotation
                  JOINT rRing1
                  {
                    OFFSET -5.0395 -0.09 2.4971
                    CHANNELS 6 Xposition Yposition Zposition Zrotation Xrotation Yrotation
                    JOINT rRing2
                    {
                      OFFSET -3.7921 -1.552 1.4806
                      CHANNELS 6 Xposition Yposition Zposition Zrotation Xrotation Yrotation
                      JOINT rRing2_End
                      {
                        OFFSET -1.4655 -1.808 0.9609
                        CHANNELS 6 Xposition Yposition Zposition Zrotation Xrotation Yrotation
                        End Site
                        {
                          OFFSET -0.0147 -0.0181 0.0096
                        }
                      }
                    }
                  }
                  JOINT rPinky1
                  {
                    OFFSET -4.9141 -1.269 0.3592
                    CHANNELS 6 Xposition Yposition Zposition Zrotation Xrotation Yrotation
                    JOINT rPinky2
                    {
                      OFFSET -3.1477 -1.685 0.8462
                      CHANNELS 6 Xposition Yposition Zposition Zrotation Xrotation Yrotation
                      JOINT rPinky2_End
                      {
                        OFFSET -0.8055 -1.585 0.7955
                        CHANNELS 6 Xposition Yposition Zposition Zrotation Xrotation Yrotation
                        End Site
                        {
                          OFFSET -0.0081 -0.0158 0.008
                        }
                      }
                    }
                  }
                }
              }
            }
          }
        }
      }
    }
  }
  JOINT lThigh
  {
    OFFSET 8.367 -8.2066 0.5982
    CHANNELS 6 Xposition Yposition Zposition Zrotation Xrotation Yrotation
    JOINT lShin
    {
      OFFSET 2.1923 -43.463 -0.4932
      CHANNELS 6 Xposition Yposition Zposition Zrotation Xrotation Yrotation
      JOINT lFoot
      {
        OFFSET 0.7333 -45.8593 -2.6451
        CHANNELS 6 Xposition Yposition Zposition Zrotation Xrotation Yrotation
        End Site
        {
          OFFSET 2.6618 -4.2699 12.3931
        }
      }
    }
  }
  JOINT rThigh
  {
    OFFSET -8.367 -8.2066 0.5982
    CHANNELS 6 Xposition Yposition Zposition Zrotation Xrotation Yrotation
    JOINT rShin
    {
      OFFSET -2.1923 -43.463 -0.4931
      CHANNELS 6 Xposition Yposition Zposition Zrotation Xrotation Yrotation
      JOINT rFoot
      {
        OFFSET -0.7333 -45.8593 -2.6451
        CHANNELS 6 Xposition Yposition Zposition Zrotation Xrotation Yrotation
        End Site
        {
          OFFSET -2.6618 -4.2699 12.3931
        }
      }
    }
  }
}
MOTION
Frames:	4
Frame Time:	0.0333333
28.2569 5.55576 -12.0741 89.9996 76.9891 179.985 8.88178e-016 -1.186 -1.5018 2.40214 2.62897 -0.679552 -8.88178e-016 9.964 0.2134 4.84288 5.22687 -1.47126 0 13.134 -3.2573 4.84289 5.2269 -1.47126 -1.77636e-015 20.686 -1.6905 -0.000722108 50.4172 0.000553821 0 7.238 -0.1237 -0.0447264 -30.0586 -0.0241715 1.7069 20.075 5.0056 -3.81083 -8.55578 -28.3044 13.6458 -0.047 -4.849 -61.9651 -8.74953 -14.9069 28.3255 -0.9759 2.2888 1.07963 -12.4105 -32.2794 22.1583 -0.53 10.8316 -5.03754 -1.17404 -19.9274 0.786 0.112 2.5817 -1.59028e-015 -3.18055e-015 3.18055e-015 0.3601 -0.878 4.2331 7.63599e-007 -2.19185e-006 1.9405e-006 1.8127 -1.216 2.2227 1.25485e-006 3.35434e-006 -1.3412e-006 0.9571 1.114 1.7695 -5.29669e-031 9.54166e-015 3.18055e-015 4.1246 0.487 4.1451 -3.18055e-015 9.54166e-015 9.54166e-015 3.4052 -1.454 2.7682 7.63599e-007 -2.19185e-006 1.9405e-006 1.4531 -1.795 1.2713 1.25485e-006 3.35434e-006 -1.3412e-006 5.6954 0.21 2.1184 -3.18055e-015 9.54166e-015 9.54166e-015 3.9766 -1.54 2.3863 7.63599e-007 -2.19185e-006 1.9405e-006 1.4042 -1.926 1.125 1.25485e-006 3.35434e-006 -1.3412e-006 2.0956 0.66 -0.3894 -5.29669e-031 9.54166e-015 3.18055e-015 5.0395 -0.09 2.4971 -3.18055e-015 9.54166e-015 9.54166e-015 3.7921 -1.552 1.4806 7.63599e-007 -2.19185e-006 1.9405e-006 1.4655 -1.808 0.9609 1.25485e-006 3.35434e-006 -1.3412e-006 4.9141 -1.269 0.3591 -3.18055e-015 9.54166e-015 9.54166e-015 3.1477 -1.685 0.8462 7.63599e-007 -2.19185e-006 1.9405e-006 0.8055 -1.585 0.7955 1.25485e-006 3.35434e-006 -1.3412e-006 -1.7069 20.075 5.0056 -5.03086 -1.05687 20.9822 -13.6458 -0.047 -4.849 59.7496 -5.85798 8.06321 -28.3255 -0.9759 2.2888 50.0725 -25.6612 91.6538 -22.1583 -0.53 10.8316 31.2292 26.5098 9.72752 -0.786 0.112 2.5817 1.93815e-015 0 3.97569e-016 -0.3601 -0.878 4.2331 -9.25128e-007 -5.44525e-007 1.97148e-006 -1.8127 -1.216 2.2227 -7.5896e-007 -2.85243e-007 -1.71922e-006 -0.9571 1.114 1.7695 1.93815e-015 0 3.97569e-016 -4.1246 0.487 4.1451 2.6339e-015 7.95139e-016 6.36111e-015 -3.4052 -1.454 2.7682 -9.25128e-007 -5.44525e-007 1.97148e-006 -1.4531 -1.795 1.2713 -7.5896e-007 -2.85243e-007 -1.71922e-006 -5.6954 0.21 2.1184 2.6339e-015 7.95139e-016 6.36111e-015 -3.9766 -1.54 2.3863 -9.25128e-007 -5.44525e-007 1.97148e-006 -1.4042 -1.926 1.125 -7.5896e-007 -2.85243e-007 -1.71922e-006 -2.0956 0.66 -0.3894 1.93815e-015 0 3.97569e-016 -5.0395 -0.09 2.4971 2.6339e-015 7.95139e-016 6.36111e-015 -3.7921 -1.552 1.4806 -9.25128e-007 -5.44525e-007 1.97148e-006 -1.4655 -1.808 0.9609 -7.5896e-007 -2.85243e-007 -1.71922e-006 -4.9141 -1.269 0.3592 2.6339e-015 7.95139e-016 6.36111e-015 -3.1477 -1.685 0.8462 -9.25128e-007 -5.44525e-007 1.97148e-006 -0.8055 -1.585 0.7955 -7.5896e-007 -2.85243e-007 -1.71922e-006 8.367 -8.2066 0.5982 3.16854 -39.4737 2.87893 2.1923 -43.463 -0.4932 -2.3075 32.4968 2.13838 0.7333 -45.8593 -2.6451 5.30835 8.90211 0.164586 -8.367 -8.2066 0.5982 3.2558 -23.2487 8.89692 -2.1923 -43.463 -0.4931 43.5492 53.4116 -39.9026 -0.7333 -45.8593 -2.6451 8.25121 36.23 -10.6966 
28.257 5.55452 -12.0746 89.9996 76.9891 179.985 -8.88178e-016 -1.186 -1.5018 2.40305 2.44972 -0.656139 0 9.964 0.2134 4.84065 4.86957 -1.41651 -1.77636e-015 13.134 -3.2573 4.84067 4.86957 -1.41652 0 20.686 -1.6905 -0.000303499 50.9454 0.000160032 -3.55271e-015 7.238 -0.1237 -0.0439932 -28.0642 -0.0224626 1.7069 20.075 5.0056 -4.73801 -8.3355 -29.2835 13.6458 -0.047 -4.849 -60.9814 -9.23308 -14.7216 28.3255 -0.9759 2.2888 1.08216 -12.3368 -30.3799 22.1583 -0.53 10.8316 -5.27061 -0.947 -20.641 0.786 0.112 2.5817 1.59012e-006 -4.27885e-007 4.08976e-007 0.3601 -0.878 4.2331 1.16223e-006 -2.018e-006 2.16895e-007 1.8127 -1.216 2.2227 1.59012e-006 -4.27885e-007 4.08976e-007 0.9571 1.114 1.7695 -3.53113e-031 -6.36111e-015 -3.18055e-015 4.1246 0.487 4.1451 1.59012e-006 -4.27885e-007 4.08976e-007 3.4052 -1.454 2.7682 1.16223e-006 -2.018e-006 2.16895e-007 1.4531 -1.795 1.2713 1.59012e-006 -4.27885e-007 4.08976e-007 5.6954 0.21 2.1184 1.59012e-006 -4.27885e-007 4.08976e-007 3.9766 -1.54 2.3863 1.16223e-006 -2.018e-006 2.16895e-007 1.4042 -1.926 1.125 1.59012e-006 -4.27885e-007 4.08976e-007 2.0956 0.66 -0.3894 -3.53113e-031 -6.36111e-015 -3.18055e-015 5.0395 -0.09 2.4971 1.59012e-006 -4.27885e-007 4.08976e-007 3.7921 -1.552 1.4806 1.16223e-006 -2.018e-006 2.16895e-007 1.4655 -1.808 0.9609 1.59012e-006 -4.27885e-007 4.08976e-007 4.9141 -1.269 0.3591 1.59012e-006 -4.27885e-007 4.08976e-007 3.1477 -1.685 0.8462 1.16223e-006 -2.018e-006 2.16895e-007 0.8055 -1.585 0.7955 1.59012e-006 -4.27885e-007 4.08976e-007 -1.7069 20.075 5.0056 -4.76064 -0.952039 21.2154 -13.6458 -0.047 -4.849 59.5903 -5.97288 7.97948 -28.3255 -0.9759 2.2888 50.2808 -26.2511 91.1569 -22.1583 -0.53 10.8316 31.4312 26.8042 9.43732 -0.786 0.112 2.5817 8.94531e-016 7.95139e-016 -3.97569e-016 -0.3601 -0.878 4.2331 4.02539e-015 7.95139e-016 -3.97569e-016 -1.8127 -1.216 2.2227 3.926e-015 1.59028e-015 -7.95139e-016 -0.9571 1.114 1.7695 8.94531e-016 0 -3.97569e-016 -4.1246 0.487 4.1451 4.82053e-015 0 6.36111e-015 -3.4052 -1.454 2.7682 1.59028e-015 0 -0 -1.4531 -1.795 1.2713 4.62174e-015 0 -0 -5.6954 0.21 2.1184 4.82053e-015 0 6.36111e-015 -3.9766 -1.54 2.3863 1.59028e-015 0 -0 -1.4042 -1.926 1.125 4.62174e-015 0 -0 -2.0956 0.66 -0.3894 8.94531e-016 0 -3.97569e-016 -5.0395 -0.09 2.4971 4.82053e-015 0 6.36111e-015 -3.7921 -1.552 1.4806 1.59028e-015 0 -0 -1.4655 -1.808 0.9609 4.62174e-015 0 -0 -4.9141 -1.269 0.3592 4.82053e-015 0 6.36111e-015 -3.1477 -1.685 0.8462 1.59028e-015 0 -0 -0.8055 -1.585 0.7955 4.62174e-015 0 -0 8.367 -8.2066 0.5982 3.16775 -39.475 2.87864 2.1923 -43.463 -0.4932 -2.30782 32.4992 2.13895 0.7333 -45.8593 -2.6451 5.30924 8.90103 0.164493 -8.367 -8.2066 0.5982 2.83727 -23.1519 8.20285 -2.1923 -43.463 -0.4931 43.5416 53.4084 -39.9042 -0.7333 -45.8593 -2.6451 7.47826 36.3847 -9.97039 
28.257 5.5534 -12.0751 89.9996 76.9891 179.985 -8.88178e-016 -1.186 -1.5018 2.40387 2.28897 -0.635107 0 9.964 0.2134 4.83875 4.54911 -1.36744 0 13.134 -3.2573 4.83874 4.54914 -1.36744 -3.55271e-015 20.686 -1.6905 -0.000865108 51.4199 0.000675692 0 7.238 -0.1237 -0.0433659 -26.2671 -0.0209616 1.7069 20.075 5.0056 -5.56711 -8.12319 -30.1592 13.6458 -0.047 -4.849 -60.0956 -9.66421 -14.5472 28.3255 -0.9759 2.2888 1.08325 -12.2742 -28.6698 22.1583 -0.53 10.8316 -5.47727 -0.740504 -21.2803 0.786 0.112 2.5817 4.77083e-015 0 -3.18055e-015 0.3601 -0.878 4.2331 1.59028e-015 -6.36111e-015 -0 1.8127 -1.216 2.2227 -5.29669e-031 -9.54166e-015 -3.18055e-015 0.9571 1.114 1.7695 4.77083e-015 6.36111e-015 -3.18055e-015 4.1246 0.487 4.1451 3.18055e-015 6.36111e-015 -0 3.4052 -1.454 2.7682 6.36111e-015 -1.90833e-014 -6.36111e-015 1.4531 -1.795 1.2713 -4.77083e-015 -9.54166e-015 3.18055e-015 5.6954 0.21 2.1184 3.18055e-015 6.36111e-015 -0 3.9766 -1.54 2.3863 6.36111e-015 -1.90833e-014 -6.36111e-015 1.4042 -1.926 1.125 -4.77083e-015 -9.54166e-015 3.18055e-015 2.0956 0.66 -0.3894 4.77083e-015 6.36111e-015 -3.18055e-015 5.0395 -0.09 2.4971 3.18055e-015 6.36111e-015 -0 3.7921 -1.552 1.4806 6.36111e-015 -1.90833e-014 -6.36111e-015 1.4655 -1.808 0.9609 -4.77083e-015 -9.54166e-015 3.18055e-015 4.9141 -1.269 0.3591 3.18055e-015 6.36111e-015 -0 3.1477 -1.685 0.8462 6.36111e-015 -1.90833e-014 -6.36111e-015 0.8055 -1.585 0.7955 -4.77083e-015 -9.54166e-015 3.18055e-015 -1.7069 20.075 5.0056 -4.51857 -0.856969 21.424 -13.6458 -0.047 -4.849 59.4479 -6.0753 7.90441 -28.3255 -0.9759 2.2888 50.4644 -26.7827 90.7123 -22.1583 -0.53 10.8316 31.6142 27.0673 9.17537 -0.786 0.112 2.5817 2.08724e-015 0 -7.95139e-016 -0.3601 -0.878 4.2331 -1.68692e-006 -1.24952e-006 3.2377e-007 -1.8127 -1.216 2.2227 4.72114e-015 1.59028e-015 -7.95139e-016 -0.9571 1.114 1.7695 2.08724e-015 -7.95139e-016 -7.95139e-016 -4.1246 0.487 4.1451 2.78299e-015 -7.95139e-016 5.56597e-015 -3.4052 -1.454 2.7682 -1.68692e-006 -1.24952e-006 3.2377e-007 -1.4531 -1.795 1.2713 -1.09332e-015 0 -0 -5.6954 0.21 2.1184 2.78299e-015 -7.95139e-016 5.56597e-015 -3.9766 -1.54 2.3863 -1.68692e-006 -1.24952e-006 3.2377e-007 -1.4042 -1.926 1.125 -1.09332e-015 0 -0 -2.0956 0.66 -0.3894 2.08724e-015 -7.95139e-016 -7.95139e-016 -5.0395 -0.09 2.4971 2.78299e-015 -7.95139e-016 5.56597e-015 -3.7921 -1.552 1.4806 -1.68692e-006 -1.24952e-006 3.2377e-007 -1.4655 -1.808 0.9609 -1.09332e-015 0 -0 -4.9141 -1.269 0.3592 2.78299e-015 -7.95139e-016 5.56597e-015 -3.1477 -1.685 0.8462 -1.68692e-006 -1.24952e-006 3.2377e-007 -0.8055 -1.585 0.7955 -1.09332e-015 0 -0 8.367 -8.2066 0.5982 3.16705 -39.4763 2.87838 2.1923 -43.463 -0.4932 -2.30809 32.5013 2.13945 0.7333 -45.8593 -2.6451 5.31004 8.90001 0.16441 -8.367 -8.2066 0.5982 2.46306 -23.0611 7.58133 -2.1923 -43.463 -0.4931 43.5347 53.4054 -39.9054 -0.7333 -45.8593 -2.6451 6.78175 36.5165 -9.31568 
28.2571 5.55228 -12.0756 89.9996 76.9891 179.985 0 -1.186 -1.5018 2.40466 2.12822 -0.614085 8.88178e-016 9.964 0.2134 4.837 4.22863 -1.3184 0 13.134 -3.2573 4.83698 4.22863 -1.31839 -1.77636e-015 20.686 -1.6905 -0.000430141 51.8937 0.000292401 -3.55271e-015 7.238 -0.1237 -0.0428094 -24.4632 -0.0195033 1.7069 20.075 5.0056 -6.39369 -7.8981 -31.0325 13.6458 -0.047 -4.849 -59.2064 -10.0931 -14.3656 28.3255 -0.9759 2.2888 1.08241 -12.2113 -26.9542 22.1583 -0.53 10.8316 -5.68172 -0.531596 -21.9193 0.786 0.112 2.5817 -3.18055e-015 0 3.18055e-015 0.3601 -0.878 4.2331 1.76556e-031 -3.18055e-015 3.18055e-015 1.8127 -1.216 2.2227 -3.18055e-015 -6.36111e-015 -3.18055e-015 0.9571 1.114 1.7695 -3.18055e-015 3.18055e-015 3.18055e-015 4.1246 0.487 4.1451 1.59028e-015 -3.18055e-015 3.18055e-015 3.4052 -1.454 2.7682 -4.77083e-015 -3.18055e-015 9.54166e-015 1.4531 -1.795 1.2713 -4.77083e-015 0 -0 5.6954 0.21 2.1184 1.59028e-015 -3.18055e-015 3.18055e-015 3.9766 -1.54 2.3863 -4.77083e-015 -3.18055e-015 9.54166e-015 1.4042 -1.926 1.125 -4.77083e-015 0 -0 2.0956 0.66 -0.3894 -3.18055e-015 3.18055e-015 3.18055e-015 5.0395 -0.09 2.4971 1.59028e-015 -3.18055e-015 3.18055e-015 3.7921 -1.552 1.4806 -4.77083e-015 -3.18055e-015 9.54166e-015 1.4655 -1.808 0.9609 -4.77083e-015 0 -0 4.9141 -1.269 0.3591 1.59028e-015 -3.18055e-015 3.18055e-015 3.1477 -1.685 0.8462 -4.77083e-015 -3.18055e-015 9.54166e-015 0.8055 -1.585 0.7955 -4.77083e-015 0 -0 -1.7069 20.075 5.0056 -4.27692 -0.761057 21.6322 -13.6458 -0.047 -4.849 59.3053 -6.17751 7.82902 -28.3255 -0.9759 2.2888 50.6444 -27.3158 90.2673 -22.1583 -0.53 10.8316 31.799 27.3296 8.91185 -0.786 0.112 2.5817 -1.78848e-006 -6.98943e-007 -1.50071e-006 -0.3601 -0.878 4.2331 5.05599e-009 8.3974e-007 -1.44593e-007 -1.8127 -1.216 2.2227 -1.79181e-006 -7.0798e-007 -1.55319e-006 -0.9571 1.114 1.7695 -3.67752e-015 7.95139e-016 -0 -4.1246 0.487 4.1451 -1.78848e-006 -6.98943e-007 -1.50071e-006 -3.4052 -1.454 2.7682 5.05599e-009 8.3974e-007 -1.44593e-007 -1.4531 -1.795 1.2713 -1.79181e-006 -7.0798e-007 -1.55319e-006 -5.6954 0.21 2.1184 -1.78848e-006 -6.98943e-007 -1.50071e-006 -3.9766 -1.54 2.3863 5.05599e-009 8.3974e-007 -1.44593e-007 -1.4042 -1.926 1.125 -1.79181e-006 -7.0798e-007 -1.55319e-006 -2.0956 0.66 -0.3894 -3.67752e-015 7.95139e-016 -0 -5.0395 -0.09 2.4971 -1.78848e-006 -6.98943e-007 -1.50071e-006 -3.7921 -1.552 1.4806 5.05599e-009 8.3974e-007 -1.44593e-007 -1.4655 -1.808 0.9609 -1.79181e-006 -7.0798e-007 -1.55319e-006 -4.9141 -1.269 0.3592 -1.78848e-006 -6.98943e-007 -1.50071e-006 -3.1477 -1.685 0.8462 5.05599e-009 8.3974e-007 -1.44593e-007 -0.8055 -1.585 0.7955 -1.79181e-006 -7.0798e-007 -1.55319e-006 8.367 -8.2066 0.5982 3.16635 -39.4774 2.87813 2.1923 -43.463 -0.4932 -2.30836 32.5034 2.13997 0.7333 -45.8593 -2.6451 5.31082 8.89901 0.164336 -8.367 -8.2066 0.5982 2.09004 -22.9665 6.96062 -2.1923 -43.463 -0.4931 43.528 53.4026 -39.9064 -0.7333 -45.8593 -2.6451 6.08205 36.6417 -8.65784 
